<svg xmlns="http://www.w3.org/2000/svg" viewBox="0 0 100 100"><defs><style>.cls-1{fill:#ff9279;}.cls-2{fill:#fff;}</style></defs><title>mp</title><g id="Lager_2" data-name="Lager 2"><path class="cls-1" d="M51,93A43,43,0,1,1,94,50,43.09,43.09,0,0,1,51,93Zm0-82.51A39.46,39.46,0,1,0,90.41,50,39.52,39.52,0,0,0,51,10.49Z"/><path class="cls-2" d="M49.45,93A43,43,0,1,1,92.5,50,43.1,43.1,0,0,1,49.45,93Zm0-82.51A39.46,39.46,0,1,0,88.91,50,39.51,39.51,0,0,0,49.45,10.49Z"/><path class="cls-1" d="M30.29,76.86a1.8,1.8,0,0,1-1.79-1.8V24.84a1.8,1.8,0,0,1,3.06-1.27L52,44a1.8,1.8,0,0,1-2.54,2.54L32.09,29.17V75.06A1.81,1.81,0,0,1,30.29,76.86Z"/><path class="cls-1" d="M71.19,76.86a1.81,1.81,0,0,1-1.8-1.8V29.17L31.56,67A1.8,1.8,0,1,1,29,64.47l40.9-40.9A1.8,1.8,0,0,1,73,24.84V75.06A1.8,1.8,0,0,1,71.19,76.86Z"/><path class="cls-2" d="M28.86,76.86a1.81,1.81,0,0,1-1.8-1.8V24.84a1.78,1.78,0,0,1,1.11-1.65,1.8,1.8,0,0,1,2,.38L50.57,44A1.79,1.79,0,1,1,48,46.56L30.65,29.17V75.06A1.8,1.8,0,0,1,28.86,76.86Z"/><path class="cls-2" d="M69.75,76.86A1.8,1.8,0,0,1,68,75.06V29.17L30.13,67a1.8,1.8,0,1,1-2.54-2.54l40.89-40.9a1.8,1.8,0,0,1,2-.38,1.78,1.78,0,0,1,1.1,1.65V75.06A1.8,1.8,0,0,1,69.75,76.86Z"/></g></svg>